<?xml version="1.0" encoding="UTF-8"?>
<svg id="svg" version="1.1" xmlns="http://www.w3.org/2000/svg" style="display: block;" viewBox="0 0 1024 1024"><path d="M0 0 C0.98299576 0.24917175 1.96599152 0.49834351 2.97877502 0.75506592 C6.19647453 1.57413784 9.41091895 2.40513083 12.625 3.23828125 C13.73028046 3.523013 14.83556091 3.80774475 15.97433472 4.10110474 C32.31823362 8.31465514 48.63898009 12.62205973 64.91479492 17.09170532 C67.07884466 17.6845589 69.24419851 18.27267465 71.41088867 18.85580444 C74.44631579 19.67513272 77.47552668 20.51442054 80.50390625 21.359375 C81.38413956 21.59340027 82.26437286 21.82742554 83.17127991 22.06854248 C92.63485884 24.76161166 100.24099614 28.77919356 105.46875 37.3046875 C114.71894308 55.27381257 104.3867051 76.81199795 99.03197098 94.68867493 C98.22772452 97.37698653 97.42805376 100.0666504 96.62837887 102.75632477 C94.57149227 109.67449184 92.50553341 116.58991266 90.43469143 123.50391388 C89.08347908 128.01611806 87.73663926 132.52960425 86.39257812 137.04394531 C73.4868803 180.38135049 73.4868803 180.38135049 66.4375 201.73828125 C66.22247833 202.39646851 66.00745667 203.05465576 65.78591919 203.73278809 C60.39637471 220.16252402 53.32099188 234.79022765 37.625 243.55078125 C22.52930649 250.79671414 9.28964386 250.9422204 -6.75 246.30078125 C-8.00369385 245.95160645 -9.2573877 245.60243164 -10.54907227 245.24267578 C-14.05640576 244.2606514 -17.55469637 243.24953448 -21.05096436 242.22888184 C-23.50577093 241.51262527 -25.96205738 240.80159289 -28.41845703 240.09082031 C-33.72155962 238.55290078 -39.01786867 236.99258127 -44.3125 235.42578125 C-45.57365631 235.05495422 -45.57365631 235.05495422 -46.86029053 234.67663574 C-82.5115354 224.15562393 -82.5115354 224.15562393 -91.05078125 211.08984375 C-97.57639425 198.57760643 -96.77067447 185.90485174 -92.734375 172.64453125 C-92.33150017 171.28029778 -92.33150017 171.28029778 -91.92048645 169.88850403 C-89.41033803 161.47227422 -86.68680522 153.12768206 -83.91238403 144.79556274 C-77.96632956 126.90402169 -72.38332385 108.91266455 -66.9375 90.86328125 C-66.22207554 88.49629203 -65.5064994 86.12934865 -64.79077148 83.76245117 C-64.43646561 82.59061783 -64.08215973 81.41878448 -63.71711731 80.21144104 C-63.36316391 79.04080612 -63.00921051 77.8701712 -62.64453125 76.6640625 C-62.11487007 74.91203773 -62.11487007 74.91203773 -61.57450867 73.12461853 C-58.10293017 61.64435247 -54.62937856 50.16489905 -51.0944519 38.70394897 C-50.455381 36.62535412 -49.82045449 34.54547989 -49.18997192 32.46426392 C-48.31980162 29.59380043 -47.43517488 26.72817764 -46.546875 23.86328125 C-46.29858444 23.03253586 -46.05029388 22.20179047 -45.79447937 21.34587097 C-42.95747231 12.31945309 -38.36138482 4.85172669 -30.375 -0.44921875 C-20.30360543 -5.24590585 -10.36129362 -2.68678426 0 0 Z M-23.375 20.55078125 C-24.83325707 23.5691455 -24.83325707 23.5691455 -25.75 27.23828125 C-26.15622746 28.66667308 -26.5624791 30.09505803 -26.96875 31.5234375 C-27.18660156 32.31379395 -27.40445313 33.10415039 -27.62890625 33.91845703 C-28.46623004 36.87265372 -29.37002332 39.802152 -30.28125 42.734375 C-30.93803223 44.88134768 -31.59428404 47.02848268 -32.25 49.17578125 C-32.57274902 50.20662842 -32.89549805 51.23747559 -33.22802734 52.29956055 C-35.45312263 59.36740088 -35.45312263 59.36740088 -34.375 66.55078125 C-31.82201271 69.98594975 -28.63416651 70.56217645 -24.61328125 71.64453125 C-23.92652313 71.8326236 -23.23976501 72.02071594 -22.53219604 72.21450806 C-20.25314244 72.83631026 -17.9705149 73.44369924 -15.6875 74.05078125 C-14.09195865 74.4820042 -12.49666627 74.9141493 -10.90161133 75.34716797 C-8.38209767 76.03071892 -5.86231447 76.71314521 -3.34141541 77.39157104 C3.00638562 79.10137283 9.33727472 80.86651716 15.6640625 82.65234375 C18.37362126 83.4131007 21.08343683 84.17293484 23.79336548 84.93237305 C25.54753565 85.42556448 27.30094521 85.92146975 29.05355835 86.42016602 C31.51909222 87.12062686 33.98758815 87.80956253 36.45703125 88.49609375 C37.18165558 88.70497223 37.90627991 88.91385071 38.65286255 89.12905884 C43.08172498 90.34594663 47.04331426 91.08598457 51.625 90.55078125 C56.11772851 87.61730242 57.16853564 82.91396944 58.67578125 78.0234375 C58.93884567 77.19750595 59.2019101 76.3715744 59.47294617 75.52061462 C60.02427485 73.77843736 60.56938321 72.0342809 61.10864258 70.28833008 C61.93528883 67.62041756 62.78741669 64.96162522 63.64257812 62.30273438 C64.17602737 60.60595471 64.70797945 58.90870348 65.23828125 57.2109375 C65.49337967 56.41808853 65.74847809 55.62523956 66.01130676 54.80836487 C67.7940389 49.18312136 67.7940389 49.18312136 66.625 43.55078125 C62.38113644 38.76327537 56.33898576 37.73089844 50.38671875 36.125 C49.27432327 35.81432083 48.1619278 35.50364166 47.01582336 35.18354797 C43.45107994 34.19045888 39.8820588 33.21390432 36.3125 32.23828125 C32.82552559 31.27352011 29.3395088 30.30535424 25.85354614 29.33694458 C23.54589857 28.69663896 21.23769134 28.05834689 18.92892456 27.42208862 C9.9257283 24.93588934 0.95891957 22.33563222 -7.98640442 19.64860535 C-8.91667953 19.37244888 -9.84695465 19.09629242 -10.80541992 18.81176758 C-11.61895432 18.56743484 -12.43248871 18.32310211 -13.27067566 18.07136536 C-17.63466397 16.99176802 -19.89468465 17.838345 -23.375 20.55078125 Z M-46.375 96.55078125 C-47.80162219 99.40402562 -47.68533868 101.38532674 -47.375 104.55078125 C-45.57506226 107.25068787 -44.291227 109.09266775 -41.375 110.55078125 C-36.60419511 111.0658593 -32.63463498 111.19345216 -28.3125 108.98828125 C-25.73212994 105.74200924 -25.30247781 103.68454602 -25.375 99.55078125 C-27.43976045 96.10951383 -29.50095134 93.73451834 -33.375 92.55078125 C-39.26269388 91.9900485 -42.07265196 92.11805903 -46.375 96.55078125 Z M-12.375 107.55078125 C-13.29166667 111.05078125 -13.29166667 111.05078125 -12.375 114.55078125 C-9.8372664 117.72294824 -7.26791767 120.25314203 -3.375 121.55078125 C1.25699447 122.04354662 3.93466775 121.42103967 7.625 118.55078125 C9.71106926 115.89578401 9.62379455 114.48327621 9.5625 111.05078125 C8.4451702 106.87941667 7.2417796 105.78974005 3.625 103.55078125 C-3.39288657 101.21148573 -7.6206279 102.10064738 -12.375 107.55078125 Z M26.625 114.55078125 C23.6779642 116.72228131 22.76870311 117.8162987 22.0625 121.42578125 C22.79872569 125.51592396 24.34357052 128.08211324 27.625 130.55078125 C32.04273722 132.47542044 35.38463337 132.94126704 40 131.48828125 C42.89388943 129.35231524 44.27597248 127.88367277 45.625 124.55078125 C45.625 120.9922779 44.71828868 119.66876399 42.5 116.86328125 C37.27073446 112.65713288 32.73775728 111.56232213 26.625 114.55078125 Z M-56.375 127.55078125 C-57.78472001 130.89886627 -57.4869931 132.2396893 -56.25 135.67578125 C-54.11929198 138.94286689 -53.00053039 140.13209544 -49.375 141.55078125 C-44.77404697 142.22837615 -41.47257747 142.16816858 -37.375 139.86328125 C-35.08868267 137.21972684 -34.375 136.04180454 -34.375 132.55078125 C-35.66594187 128.7538934 -36.76045452 126.97953391 -40.0625 124.67578125 C-46.33126988 122.54676506 -51.6348603 122.23607916 -56.375 127.55078125 Z M-20.375 136.55078125 C-22.70377362 139.42672961 -22.70377362 139.42672961 -22.3125 142.98828125 C-21.18873113 147.25860297 -20.08488412 148.27426145 -16.375 150.55078125 C-12.1308708 152.89622107 -9.03915365 152.82282315 -4.375 151.55078125 C-1.49118421 148.96274144 -0.5258821 147.35548576 0.1875 143.55078125 C-0.56958383 139.51300083 -2.23609377 138.11897725 -5.375 135.55078125 C-10.5397031 132.05211141 -15.54585434 132.92892201 -20.375 136.55078125 Z M15.625 147.55078125 C13.28515558 150.4272635 13.28515558 150.4272635 13.75 153.98828125 C14.72780907 157.96936104 15.2838073 159.23764784 18.625 161.55078125 C21.97137389 163.02027587 25.00087007 163.91169901 28.62890625 163.10546875 C32.05386501 161.74692561 33.5621988 160.64498306 35.625 157.55078125 C36.29207548 154.13578534 36.29207548 154.13578534 35.625 150.55078125 C33.41390137 147.89203688 30.71800548 146.09728399 27.625 144.55078125 C22.62808353 144.17365548 19.63432275 144.45787513 15.625 147.55078125 Z M-63.375 155.55078125 C-65.72049674 159.06902636 -65.95491403 160.40853819 -65.375 164.55078125 C-62.82475635 167.65242894 -61.19800753 169.27644541 -57.375 170.55078125 C-51.45275971 171.17308674 -51.45275971 171.17308674 -46.375 168.42578125 C-44.20238629 165.70295187 -44.20238629 165.70295187 -43.75 162.55078125 C-44.61000988 158.42273382 -46.01457952 157.07109661 -49.375 154.55078125 C-54.77317937 152.11217866 -58.34106335 152.07496785 -63.375 155.55078125 Z M-29.375 166.55078125 C-30.81930855 169.43939834 -30.75188506 171.34725826 -30.375 174.55078125 C-27.74280162 177.66785828 -25.54679745 180.25210577 -21.38671875 180.82421875 C-17.06478917 181.01307618 -14.95613998 180.93433364 -11.25 178.48828125 C-9.07571186 175.63044774 -9.07571186 175.63044774 -9.25 171.98828125 C-10.6160079 167.81436822 -11.52192148 166.63786545 -15.375 164.55078125 C-20.76632863 163.13458079 -24.90031185 162.77526312 -29.375 166.55078125 Z M5.625 178.55078125 C4.32230057 181.72611111 4.39843199 182.991025 5.6875 186.17578125 C8.93412158 190.15551093 12.1657462 191.3459737 17.1875 192.05078125 C21.58363272 191.41134376 22.94254038 190.02219958 25.625 186.55078125 C26.7740712 184.62531685 26.7740712 184.62531685 26.625 182.55078125 C25.22738805 179.18007008 23.93089809 177.7523959 20.875 175.73828125 C14.66300803 173.46851495 10.23910218 173.5295524 5.625 178.55078125 Z M-70.3125 179.67578125 C-72.66686661 182.38446497 -72.66686661 182.38446497 -72.4375 185.67578125 C-71.23714717 188.9237948 -70.35871185 189.88341286 -67.375 191.55078125 C-63.6681286 192.78640505 -60.22812983 193.10898114 -56.375 192.55078125 C-53.4645555 190.58623121 -52.58080739 189.46548078 -51.8125 186.05078125 C-52.75435942 181.86473938 -55.8843738 180.51247557 -59.3125 178.30078125 C-63.80938959 176.66554867 -66.41628918 176.85724576 -70.3125 179.67578125 Z M-35.5 190.17578125 C-36.72565811 193.50256756 -36.55995311 195.20503128 -35.375 198.55078125 C-31.96624267 201.41723628 -28.87143571 203.3201948 -24.375 203.55078125 C-21.27846249 202.61461875 -19.67076678 201.84654803 -17.375 199.55078125 C-16.90309218 195.4222282 -16.90309218 195.4222282 -18.625 191.80078125 C-23.54205078 188.28860212 -30.29002235 186.19168069 -35.5 190.17578125 Z M0.0625 199.61328125 C-1.59639519 201.55619489 -1.59639519 201.55619489 -1.9375 204.48828125 C-1.62913605 207.65638766 -1.62913605 207.65638766 0.625 209.80078125 C4.19967661 211.88600927 7.45826904 213.31508738 11.625 213.55078125 C14.12571934 212.43343857 15.71043991 211.46534134 17.625 209.55078125 C18.20942963 206.67840392 18.20942963 206.67840392 17.625 203.55078125 C13.74529674 199.87003713 9.87825135 198.80742974 4.68359375 198.45703125 C2.4804017 198.44026655 2.4804017 198.44026655 0.0625 199.61328125 Z " transform="translate(710.375,536.44921875)" style="fill: currentColor;"/><path d="M0 0 C3.00685978 1.79132072 4.52657334 3.24682123 6.375 6.1875 C7.5697034 11.56366528 7.04068587 16.27748546 4.1875 21 C2.0176954 22.98382135 0.88441135 23.69095593 -2 24 C-2.09877441 25.04559082 -2.19754883 26.09118164 -2.29931641 27.16845703 C-3.07544817 33.33048821 -4.69023156 39.29219841 -6.2109375 45.3046875 C-6.53898174 46.61476492 -6.86666595 47.92493254 -7.1940155 49.23518372 C-8.06826847 52.72897206 -8.94864796 56.22119056 -9.83012772 59.71316147 C-10.55811369 62.60152296 -11.28157426 65.49101017 -12.00511265 68.3804884 C-15.43524921 82.07383556 -18.90160138 95.7555556 -22.54296875 109.39453125 C-22.80575623 110.38155029 -23.0685437 111.36856934 -23.33929443 112.38549805 C-24.53945468 116.88574066 -25.75237655 121.38186671 -26.98779297 125.87255859 C-27.41010724 127.43970416 -27.83216275 129.00691949 -28.25390625 130.57421875 C-28.44889206 131.26393265 -28.64387787 131.95364655 -28.84477234 132.66426086 C-30.09110795 137.34996812 -30.17632223 140.64735554 -28 145 C-27.24931206 152.80715459 -29.68896572 159.60625183 -32 167 C-32.57234375 168.87751953 -32.57234375 168.87751953 -33.15625 170.79296875 C-34.09432163 173.86515333 -35.04246117 176.93383843 -36 180 C-40.88023205 178.87700903 -45.75552924 177.73561899 -50.62548828 176.56884766 C-52.17013221 176.19880649 -53.71535333 175.83116364 -55.26123047 175.46630859 C-57.34447522 174.97043172 -59.42249078 174.45681354 -61.5 173.9375 C-62.7271875 173.63714844 -63.954375 173.33679688 -65.21875 173.02734375 C-66.59546875 172.51880859 -66.59546875 172.51880859 -68 172 C-69.74753279 166.75740162 -67.05884431 161.3918976 -65.50488281 156.23095703 C-64.88083589 154.14451177 -64.28355678 152.05161819 -63.6875 149.95703125 C-63.29068308 148.61930988 -62.89229468 147.28205346 -62.4921875 145.9453125 C-62.13495605 144.73375488 -61.77772461 143.52219727 -61.40966797 142.27392578 C-59.81795642 138.57720741 -58.06619804 136.57773525 -55 134 C-54.01 133.67 -53.02 133.34 -52 133 C-50.95762942 130.9103349 -50.95762942 130.9103349 -50.22924805 128.27636719 C-49.91380035 127.25891418 -49.59835266 126.24146118 -49.27334595 125.19317627 C-48.93950897 124.07239685 -48.605672 122.95161743 -48.26171875 121.796875 C-47.90403412 120.63178406 -47.54634949 119.46669312 -47.17782593 118.26629639 C-46.20503581 115.09030638 -45.24305539 111.91140873 -44.28554153 108.73080444 C-43.28909534 105.43042321 -42.27882182 102.13428709 -41.26928711 98.83789062 C-39.83423558 94.14850884 -38.40299186 89.45800102 -36.97685719 84.76589966 C-33.68917056 73.95142311 -30.33054315 63.15942936 -26.9593811 52.37072754 C-26.08153884 49.56093931 -25.20482112 46.7508041 -24.32885742 43.94042969 C-24.05787735 43.07117859 -23.78689728 42.20192749 -23.50770569 41.30633545 C-22.99641976 39.66180123 -22.48699603 38.01668652 -21.97972107 36.37091064 C-20.9837817 33.13975327 -19.97361414 29.92199164 -18.89013672 26.71875 C-18.59510254 25.831875 -18.30006836 24.945 -17.99609375 24.03125 C-17.74915771 23.32548828 -17.50222168 22.61972656 -17.24780273 21.89257812 C-16.91791616 19.37308972 -17.80067223 18.19854283 -19 16 C-19.4583991 11.26320934 -19.47747465 8.97331371 -17.375 4.6875 C-12.27521627 -1.08330791 -7.21313411 -1.95632973 0 0 Z " transform="translate(814,364)" style="fill: currentColor;"/><path d="M0 0 C7.53290454 3.57812965 13.98647805 7.86143435 20.15625 13.45703125 C20.94902344 14.16859375 21.74179687 14.88015625 22.55859375 15.61328125 C27.90374651 20.66493976 31.73415609 25.96066281 35.15625 32.45703125 C35.53007813 33.14410156 35.90390625 33.83117187 36.2890625 34.5390625 C37.7101259 37.68204506 37.5663187 40.0593192 37.15625 43.45703125 C34.68606455 47.49915289 33.21659291 49.13514144 28.65625 50.51953125 C24.66353157 50.44823271 23.35492237 49.74824328 20.15625 47.45703125 C18.3828125 45.29296875 18.3828125 45.29296875 16.78125 42.83203125 C16.18183594 41.94644531 15.58242188 41.06085938 14.96484375 40.1484375 C14.36800781 39.26027344 13.77117188 38.37210937 13.15625 37.45703125 C4.86533649 25.36366568 -6.08520796 18.87103831 -20.34765625 15.87109375 C-22.26281207 15.55339967 -24.19084046 15.3125281 -26.12109375 15.10546875 C-36.20316679 13.94869547 -36.20316679 13.94869547 -39.21875 10.83203125 C-40.97154207 7.19161694 -41.43505768 5.25633479 -40.58984375 1.359375 C-39.57296459 -1.23340066 -38.23372147 -3.09665295 -35.94140625 -4.6953125 C-25.45728674 -8.931912 -10.03599243 -4.23979037 0 0 Z " transform="translate(606.84375,315.54296875)" style="fill: currentColor;"/><path d="M0 0 C0.60199219 0.54914063 1.20398438 1.09828125 1.82421875 1.6640625 C10.10771718 9.50345729 16.62658886 18.77498186 22.0625 28.75 C22.4445459 29.43433105 22.8265918 30.11866211 23.22021484 30.82373047 C25.76642015 35.69082352 27.19955822 40.45416912 27 46 C25.21231848 49.86139209 23.64002661 51.56867772 20.125 53.9375 C16.45153392 55.18647847 14.68342907 55.17556247 11 54 C6.77323791 51.48407019 5.08774845 48.64383467 3.0859375 44.3359375 C-0.71625815 36.15711376 -5.18210999 28.88550282 -11 22 C-11.65613281 21.19820313 -12.31226563 20.39640625 -12.98828125 19.5703125 C-29.06476663 0.70175014 -53.47940762 -11.82458528 -78 -15 C-82.23442768 -15.23713864 -86.44771762 -15.23629217 -90.6875 -15.1875 C-92.30108398 -15.1865332 -92.30108398 -15.1865332 -93.94726562 -15.18554688 C-98.52707124 -15.16030606 -102.99530198 -15.07506427 -107.53125 -14.4140625 C-111.92250429 -13.88988125 -114.18839348 -14.8326159 -118 -17 C-121.05725241 -19.955344 -121.83125578 -22.78139455 -122 -27 C-120.60990492 -30.54474247 -119.17767513 -33.80849991 -116 -36 C-75.66875042 -49.69740552 -28.76112985 -27.09892795 0 0 Z " transform="translate(669,293)" style="fill: currentColor;"/><path d="M0 0 C1.0837793 0.17740723 1.0837793 0.17740723 2.18945312 0.35839844 C38.50337269 6.51515874 75.59022816 23.90869914 101 51 C101.845625 51.845625 102.69125 52.69125 103.5625 53.5625 C104.7690625 54.7690625 104.7690625 54.7690625 106 56 C106.51570557 56.49685303 107.03141113 56.99370605 107.56274414 57.50561523 C111.74078618 61.57587504 115.40659386 65.81452729 118.875 70.5 C119.38893311 71.192146 119.90286621 71.88429199 120.43237305 72.59741211 C142.21985752 102.38639003 142.21985752 102.38639003 141 116 C139.3718054 119.08193978 137.96990938 121.26420667 135.1875 123.375 C131.028198 124.563372 127.4221161 124.54175851 123.375 123 C118.44664133 118.84980323 115.98230205 113.01058395 113.20458984 107.32958984 C94.23997596 68.55364624 60.67571887 43.51048323 20.625 29.25 C-2.84774171 21.771064 -27.52494667 19.82558991 -51.80786133 23.93261719 C-65.74709465 26.26436139 -65.74709465 26.26436139 -69.85058594 23.96142578 C-72.02958088 22.19591093 -73.73870135 20.5225973 -75 18 C-75.38222745 13.41327064 -75.40773122 10.90040645 -73.5 6.6875 C-59.12114116 -8.76977325 -18.72743285 -3.18029725 0 0 Z " transform="translate(606,201)" style="fill: currentColor;"/><path d="M0 0 C1.16120361 0.00182281 2.32240723 0.00364563 3.51879883 0.00552368 C21.52538631 0.05299897 39.1682462 0.62474003 57 3.3125 C58.19302734 3.48942383 59.38605469 3.66634766 60.61523438 3.84863281 C69.11618175 5.14322738 77.56224577 6.65780328 86 8.3125 C87.59062256 8.61897461 87.59062256 8.61897461 89.21337891 8.93164062 C123.36062834 15.66806372 157.28073886 28.10285357 188.05419922 44.296875 C190.14149478 45.38635424 192.24329194 46.44389438 194.34765625 47.5 C219.20727307 60.10550875 242.48528018 75.63222198 263.46386719 93.98681641 C265.00034292 95.31279594 266.56106968 96.60282136 268.1328125 97.88671875 C275.98566371 104.35750575 283.24820395 111.37230855 290.4375 118.5625 C290.91017303 119.03426666 291.38284607 119.50603333 291.86984253 119.99209595 C297.46682593 125.59029648 302.86712229 131.28669369 308 137.3125 C308.85722656 138.28832031 309.71445312 139.26414063 310.59765625 140.26953125 C330.3784253 163.185129 346.77654607 188.6472624 361 215.3125 C361.50160645 216.2523877 362.00321289 217.19227539 362.52001953 218.16064453 C383.88244738 258.59487351 397.43434896 302.98851769 403 348.3125 C403.22429687 349.99762695 403.22429687 349.99762695 403.453125 351.71679688 C407.99772495 386.36937152 408.16922218 422.74270176 403 457.3125 C402.82307617 458.54403809 402.64615234 459.77557617 402.46386719 461.04443359 C390.97546474 539.74693496 355.2066458 614.25950118 301.328125 672.765625 C299.38199408 674.89461386 297.49426568 677.05406653 295.625 679.25 C288.40172382 687.54908327 280.41188588 695.23199175 272 702.3125 C271.03578125 703.14265625 270.0715625 703.9728125 269.078125 704.828125 C195.97024314 767.61292895 103.63565451 804.17209354 6.93652344 803.70361328 C3.00160083 803.68750655 -0.93229519 803.7035928 -4.8671875 803.72265625 C-26.83585295 803.74120884 -48.64196263 802.08441451 -70.25 798 C-71.40089111 797.78617676 -72.55178223 797.57235352 -73.73754883 797.35205078 C-147.71087347 783.25074259 -219.13948591 748.33449556 -274.26171875 696.8671875 C-276.87021925 694.43357933 -279.51990864 692.05596053 -282.1875 689.6875 C-289.63123441 682.99529647 -296.49927656 675.91591026 -303 668.3125 C-304.27423828 666.87197266 -304.27423828 666.87197266 -305.57421875 665.40234375 C-324.13737147 644.3097274 -340.41229985 620.90216247 -354 596.3125 C-354.49322754 595.42175781 -354.98645508 594.53101563 -355.49462891 593.61328125 C-404.03516437 505.10257863 -416.91644173 398.97179937 -390.12207031 294.11621094 C-369.16126335 223.06108203 -329.19751057 153.16055297 -272.453125 104.4296875 C-270.57137176 102.80562659 -268.71152288 101.1650554 -266.859375 99.5078125 C-246.95583478 81.81362339 -225.03319377 66.63579413 -202 53.3125 C-201.34692871 52.92916504 -200.69385742 52.54583008 -200.02099609 52.15087891 C-154.25212725 25.37296928 -100.72242141 8.30985403 -48 2.3125 C-46.88129517 2.18489792 -46.88129517 2.18489792 -45.73999023 2.05471802 C-30.48308811 0.36465062 -15.34173421 -0.05020921 0 0 Z M-280 150.3125 C-282.53262579 153.12861188 -284.90085648 156.04991598 -287.22265625 159.04296875 C-288.9486643 161.24694826 -290.77754015 163.2675326 -292.6875 165.3125 C-296.80673689 169.89587625 -300.45995485 174.80259623 -304.125 179.75 C-304.71112061 180.53697266 -305.29724121 181.32394531 -305.90112305 182.13476562 C-309.95726847 187.66571706 -313.56653089 193.37634034 -317 199.3125 C-312.2263983 197.92482509 -307.95062069 195.88261823 -303.51586914 193.68261719 C-225.73134926 155.13523414 -138.26132185 154.51972186 -56.8421936 181.69937134 C-19.12045108 194.50728659 15.14981174 214.90270293 44 242.3125 C44.68191406 242.92996094 45.36382813 243.54742187 46.06640625 244.18359375 C55.9379441 253.43687244 63.58831722 265.21474876 71.3125 276.25 C84.6366586 295.27591882 98.81238293 307.86454088 118.75 319.4375 C135.41432948 329.12006938 150.74981525 340.45515865 156.9375 359.5625 C162.63977523 384.47431493 151.61380571 410.31777256 139 431.3125 C132.19675958 441.99178465 124.42187105 451.87491103 116 461.3125 C115.53658203 461.83763184 115.07316406 462.36276367 114.59570312 462.90380859 C103.43998707 475.5018103 91.18432809 486.86283337 78 497.3125 C76.88437794 498.21877491 75.76985628 499.12640555 74.65625 500.03515625 C65.47037868 507.50273516 56.00671147 514.55045663 46.44384766 521.52587891 C43.22544185 523.8787554 40.01989609 526.24882271 36.81396484 528.61865234 C29.78432924 533.81396758 22.72369891 538.96198127 15.625 544.0625 C4.82998743 551.82903168 -5.6601724 559.94843564 -16 568.3125 C-16.87140625 569.00859375 -17.7428125 569.7046875 -18.640625 570.421875 C-24.72518347 575.32429068 -30.52028575 580.4597791 -36.2421875 585.7734375 C-38.39704597 587.75737236 -40.57543102 589.67406514 -42.8125 591.5625 C-52.19165419 599.70029555 -61.04651432 608.78281101 -69 618.3125 C-69.80308594 619.23804688 -70.60617187 620.16359375 -71.43359375 621.1171875 C-99.48133459 653.52678315 -137 706.56388528 -137 751.3125 C-79.93316232 775.1835955 -16.26387557 782.00442823 45 775.3125 C46.18368164 775.18359375 47.36736328 775.0546875 48.58691406 774.921875 C94.46769825 769.73733439 136.88904809 756.25674871 178 735.3125 C179.29744141 734.65628662 179.29744141 734.65628662 180.62109375 733.98681641 C205.46900019 721.28666766 227.92724187 704.49126601 249 686.3125 C249.73992188 685.67441406 250.47984375 685.03632812 251.2421875 684.37890625 C253.17163894 682.70129084 255.08712061 681.00897283 257 679.3125 C257.73089844 678.67441406 258.46179688 678.03632812 259.21484375 677.37890625 C269.39456543 668.38709374 279.25406792 658.93673181 287.67578125 648.2578125 C289.41479029 646.05409348 291.17693409 643.89187805 292.98046875 641.7421875 C301.35639143 631.71367332 308.86003314 621.25155739 316 610.3125 C316.53093262 609.50216309 317.06186523 608.69182617 317.60888672 607.85693359 C358.17759612 545.45586917 378.1985121 474.38534558 378.25 400.1875 C378.25100708 399.17493134 378.25201416 398.16236267 378.25305176 397.11911011 C378.24179916 380.32113334 377.45487316 363.95167258 375 347.3125 C374.86078125 346.32991211 374.7215625 345.34732422 374.578125 344.33496094 C369.2071042 307.34702835 357.74347876 270.72340399 341 237.3125 C340.52594727 236.3548877 340.05189453 235.39727539 339.56347656 234.41064453 C323.77485364 202.68046947 303.90688798 173.71828377 279.54882812 147.96289062 C277.89702076 146.20276802 276.26720579 144.42407466 274.640625 142.640625 C267.20072181 134.48962864 267.20072181 134.48962864 259.0546875 127.05859375 C256.46732294 124.85982577 254.03100044 122.51886153 251.5625 120.1875 C244.15589406 113.31579579 236.10582493 107.32604311 228 101.3125 C227.27506348 100.76803223 226.55012695 100.22356445 225.80322266 99.66259766 C161.45669939 51.38477139 80.61402428 27.11726369 0.5625 27.0625 C-0.78068298 27.06148788 -0.78068298 27.06148788 -2.15100098 27.06045532 C-108.98020405 27.18719862 -204.04450514 72.5058609 -280 150.3125 Z M-198 320.3125 C-199.27617187 321.37404297 -199.27617187 321.37404297 -200.578125 322.45703125 C-209.10623782 329.71639109 -219.22897072 339.99756716 -221.40625 351.44921875 C-221.90335795 358.57029008 -219.01773773 364.62049935 -214.56640625 370.06640625 C-200.37504871 383.62074524 -179.0952717 384.04698864 -160.75 383.66015625 C-145.73457575 383.06978092 -131.71083169 379.33584067 -118 373.3125 C-116.85144531 372.85746094 -115.70289063 372.40242188 -114.51953125 371.93359375 C-109.68653739 369.67898151 -106.29364793 367.73671159 -104.3984375 362.625 C-103.53507569 359.84371569 -102.83494965 357.03153368 -102.12890625 354.20703125 C-100.234068 346.95016683 -95.11469515 341.28919648 -88.84765625 337.30859375 C-78.77010039 331.87566194 -66.58763341 331.61910154 -55.6875 334.8125 C-46.55994293 338.33170797 -39.06606117 343.92729531 -34 352.3125 C-33.01 351.9825 -32.02 351.6525 -31 351.3125 C-29.92225596 337.78082484 -35.27878404 326.89579426 -43.48046875 316.421875 C-61.15156083 296.97913102 -88.97904689 290.95936407 -114 289.3125 C-144.75494239 289.3125 -174.91394724 299.77164871 -198 320.3125 Z M-63.609375 364.3984375 C-66.07887436 367.79746751 -66.39525924 371.20028371 -66 375.3125 C-64.7079598 378.61438052 -63.42460469 379.96822593 -60.6875 382.1875 C-57.18900046 383.65198818 -55.60007994 383.48803631 -52 382.3125 C-49.13949936 380.40328213 -46.56510228 378.44270457 -45 375.3125 C-44.64967644 369.97006567 -44.5438931 366.66463461 -48 362.3125 C-53.90407832 358.37644778 -58.74281411 359.77301251 -63.609375 364.3984375 Z M118.16015625 407.703125 C117.19045898 407.99864258 116.22076172 408.29416016 115.22167969 408.59863281 C114.17915039 408.91670898 113.13662109 409.23478516 112.0625 409.5625 C101.1184475 412.80433752 90.28182145 415.55801085 79 417.3125 C78.113125 417.45139648 77.22625 417.59029297 76.3125 417.73339844 C56.26637917 420.69159335 36.00258067 420.99018466 15.77832031 421.49072266 C-4.3698483 422.03189502 -24.74045355 423.19027947 -44.375 428.0625 C-45.44548584 428.32144043 -46.51597168 428.58038086 -47.61889648 428.84716797 C-92.58098629 440.06004361 -137.8014324 466.69946467 -167 503.3125 C-167.4120166 503.81749023 -167.8240332 504.32248047 -168.24853516 504.84277344 C-178.98500905 516.88702081 -178.98500905 516.88702081 -185 531.3125 C-184.19905898 533.56948633 -184.19905898 533.56948633 -182.82421875 535.85546875 C-182.33074951 536.75120605 -181.83728027 537.64694336 -181.32885742 538.56982422 C-180.78720947 539.53678223 -180.24556152 540.50374023 -179.6875 541.5 C-154.22540468 588.75195319 -147.64516686 639.8060828 -149.5 692.6875 C-149.54839218 694.11718024 -149.59657024 695.54686774 -149.64453125 696.9765625 C-149.76056577 700.42196183 -149.8794517 703.86725529 -150 707.3125 C-147.94610441 705.25860441 -147.41962878 704.14528186 -146.44140625 701.48046875 C-145.99510864 700.29880127 -145.99510864 700.29880127 -145.53979492 699.09326172 C-145.2172876 698.23748535 -144.89478027 697.38170898 -144.5625 696.5 C-132.15431598 664.64107113 -112.47124123 633.9132533 -89.265625 608.7890625 C-88.024491 607.43237465 -86.79112851 606.06778042 -85.59741211 604.66918945 C-80.56381198 598.77980891 -75.1427 593.30288461 -69.6574707 587.83959961 C-68.06541034 586.25290054 -66.4787701 584.66092258 -64.89257812 583.06835938 C-59.43566545 577.60718544 -53.91729213 572.2784184 -48 567.3125 C-47.07513794 566.52758179 -47.07513794 566.52758179 -46.1315918 565.72680664 C-29.44437681 551.64327059 -11.96625499 538.59039954 5.78955078 525.89355469 C17.97208086 517.17982984 30.06166324 508.35809706 42 499.3125 C42.6894873 498.79187988 43.37897461 498.27125977 44.08935547 497.73486328 C59.30272208 486.24008662 74.2571162 474.5543007 88 461.3125 C88.63969727 460.70003418 89.27939453 460.08756836 89.93847656 459.45654297 C104.47552962 445.47324924 119.89857097 429.11648577 128 410.3125 C127.32575833 407.95789322 127.32575833 407.95789322 126 406.3125 C122.98597389 406.3125 121.01940169 406.81530325 118.16015625 407.703125 Z " transform="translate(511,110.6875)" style="fill: currentColor;"/></svg>
